<mxfile host="app.diagrams.net" agent="Mozilla/5.0 (Windows NT 10.0; Win64; x64; rv:139.0) Gecko/20100101 Firefox/139.0" version="27.1.4">
  <diagram name="Страница — 1" id="vKgxhVUG8v1YudVYXvH5">
    <mxGraphModel dx="1573" dy="1867" grid="1" gridSize="10" guides="1" tooltips="1" connect="1" arrows="1" fold="1" page="1" pageScale="1" pageWidth="827" pageHeight="1169" math="0" shadow="0">
      <root>
        <mxCell id="0" />
        <mxCell id="1" parent="0" />
        <mxCell id="oOb8ptVoilpQ5AJhGUSj-16" value="" style="fontSize=12;html=1;endArrow=ERoneToMany;rounded=0;verticalAlign=top;" parent="1" edge="1">
          <mxGeometry width="100" height="100" relative="1" as="geometry">
            <mxPoint x="369.76" y="610" as="sourcePoint" />
            <mxPoint x="369.76" y="600" as="targetPoint" />
            <Array as="points" />
          </mxGeometry>
        </mxCell>
        <mxCell id="oOb8ptVoilpQ5AJhGUSj-48" value="" style="endArrow=none;dashed=1;html=1;rounded=0;" parent="1" edge="1">
          <mxGeometry width="50" height="50" relative="1" as="geometry">
            <mxPoint x="430" y="680.8199999999999" as="sourcePoint" />
            <mxPoint x="530" y="680.8199999999999" as="targetPoint" />
            <Array as="points" />
          </mxGeometry>
        </mxCell>
        <mxCell id="JDaWL42p9K6xXjtLEoiw-2" value="" style="endArrow=none;dashed=1;html=1;rounded=0;exitX=0.5;exitY=1;exitDx=0;exitDy=0;" edge="1" parent="1">
          <mxGeometry width="50" height="50" relative="1" as="geometry">
            <mxPoint x="590" y="510.0000000000002" as="sourcePoint" />
            <mxPoint x="590" y="650" as="targetPoint" />
            <Array as="points" />
          </mxGeometry>
        </mxCell>
        <mxCell id="JDaWL42p9K6xXjtLEoiw-3" value="" style="endArrow=none;dashed=1;html=1;rounded=0;" edge="1" parent="1">
          <mxGeometry width="50" height="50" relative="1" as="geometry">
            <mxPoint x="370" y="650" as="sourcePoint" />
            <mxPoint x="370" y="630" as="targetPoint" />
            <Array as="points" />
          </mxGeometry>
        </mxCell>
        <mxCell id="JDaWL42p9K6xXjtLEoiw-4" value="" style="endArrow=none;html=1;rounded=0;entryX=0.5;entryY=1;entryDx=0;entryDy=0;" edge="1" parent="1">
          <mxGeometry width="50" height="50" relative="1" as="geometry">
            <mxPoint x="370" y="630" as="sourcePoint" />
            <mxPoint x="369.79" y="600" as="targetPoint" />
          </mxGeometry>
        </mxCell>
        <mxCell id="JDaWL42p9K6xXjtLEoiw-6" value="" style="fontSize=12;html=1;endArrow=ERoneToMany;rounded=0;verticalAlign=top;entryX=0;entryY=0.5;entryDx=0;entryDy=0;" edge="1" parent="1">
          <mxGeometry width="100" height="100" relative="1" as="geometry">
            <mxPoint x="520" y="681" as="sourcePoint" />
            <mxPoint x="530" y="681" as="targetPoint" />
            <Array as="points" />
          </mxGeometry>
        </mxCell>
        <mxCell id="JDaWL42p9K6xXjtLEoiw-7" value="" style="fontSize=12;html=1;endArrow=ERoneToMany;rounded=0;verticalAlign=top;entryX=0;entryY=0.5;entryDx=0;entryDy=0;" edge="1" parent="1">
          <mxGeometry width="100" height="100" relative="1" as="geometry">
            <mxPoint x="589.9" y="641" as="sourcePoint" />
            <mxPoint x="589.9" y="651" as="targetPoint" />
            <Array as="points" />
          </mxGeometry>
        </mxCell>
        <mxCell id="JDaWL42p9K6xXjtLEoiw-8" value="" style="endArrow=none;dashed=1;html=1;rounded=0;" edge="1" parent="1">
          <mxGeometry width="50" height="50" relative="1" as="geometry">
            <mxPoint x="430" y="479.93" as="sourcePoint" />
            <mxPoint x="530" y="479.93" as="targetPoint" />
            <Array as="points" />
          </mxGeometry>
        </mxCell>
        <mxCell id="JDaWL42p9K6xXjtLEoiw-9" value="" style="endArrow=none;html=1;rounded=0;" edge="1" parent="1">
          <mxGeometry width="50" height="50" relative="1" as="geometry">
            <mxPoint x="430" y="480" as="sourcePoint" />
            <mxPoint x="480" y="480" as="targetPoint" />
          </mxGeometry>
        </mxCell>
        <mxCell id="JDaWL42p9K6xXjtLEoiw-10" value="" style="fontSize=12;html=1;endArrow=ERoneToMany;rounded=0;verticalAlign=top;" edge="1" parent="1">
          <mxGeometry width="100" height="100" relative="1" as="geometry">
            <mxPoint x="440" y="480" as="sourcePoint" />
            <mxPoint x="430" y="480" as="targetPoint" />
            <Array as="points" />
          </mxGeometry>
        </mxCell>
        <mxCell id="JDaWL42p9K6xXjtLEoiw-11" value="" style="fontSize=12;html=1;endArrow=ERoneToMany;rounded=0;verticalAlign=top;" edge="1" parent="1">
          <mxGeometry width="100" height="100" relative="1" as="geometry">
            <mxPoint x="368" y="330" as="sourcePoint" />
            <mxPoint x="368" y="320" as="targetPoint" />
            <Array as="points" />
          </mxGeometry>
        </mxCell>
        <mxCell id="JDaWL42p9K6xXjtLEoiw-12" value="" style="endArrow=none;dashed=1;html=1;rounded=0;exitX=0.5;exitY=0;exitDx=0;exitDy=0;" edge="1" parent="1">
          <mxGeometry width="50" height="50" relative="1" as="geometry">
            <mxPoint x="368" y="398" as="sourcePoint" />
            <mxPoint x="368" y="353" as="targetPoint" />
            <Array as="points" />
          </mxGeometry>
        </mxCell>
        <mxCell id="JDaWL42p9K6xXjtLEoiw-13" value="" style="endArrow=none;html=1;rounded=0;" edge="1" parent="1">
          <mxGeometry width="50" height="50" relative="1" as="geometry">
            <mxPoint x="368" y="368" as="sourcePoint" />
            <mxPoint x="368" y="330" as="targetPoint" />
          </mxGeometry>
        </mxCell>
        <mxCell id="JDaWL42p9K6xXjtLEoiw-15" value="" style="endArrow=none;dashed=1;html=1;rounded=0;" edge="1" parent="1">
          <mxGeometry width="50" height="50" relative="1" as="geometry">
            <mxPoint x="430" y="68" as="sourcePoint" />
            <mxPoint x="530" y="68" as="targetPoint" />
            <Array as="points" />
          </mxGeometry>
        </mxCell>
        <mxCell id="JDaWL42p9K6xXjtLEoiw-16" value="" style="endArrow=none;html=1;rounded=0;" edge="1" parent="1">
          <mxGeometry width="50" height="50" relative="1" as="geometry">
            <mxPoint x="430" y="68.07" as="sourcePoint" />
            <mxPoint x="480" y="68.07" as="targetPoint" />
          </mxGeometry>
        </mxCell>
        <mxCell id="JDaWL42p9K6xXjtLEoiw-17" value="" style="fontSize=12;html=1;endArrow=ERoneToMany;rounded=0;verticalAlign=top;" edge="1" parent="1">
          <mxGeometry width="100" height="100" relative="1" as="geometry">
            <mxPoint x="440" y="68.07" as="sourcePoint" />
            <mxPoint x="430" y="68.07" as="targetPoint" />
            <Array as="points" />
          </mxGeometry>
        </mxCell>
        <mxCell id="JDaWL42p9K6xXjtLEoiw-18" value="" style="endArrow=none;dashed=1;html=1;rounded=0;entryX=0;entryY=0.5;entryDx=0;entryDy=0;" edge="1" parent="1">
          <mxGeometry width="50" height="50" relative="1" as="geometry">
            <mxPoint x="200" as="sourcePoint" />
            <mxPoint x="249.99999999999977" y="440" as="targetPoint" />
            <Array as="points">
              <mxPoint x="200" y="440" />
            </Array>
          </mxGeometry>
        </mxCell>
        <mxCell id="JDaWL42p9K6xXjtLEoiw-20" value="" style="fontSize=12;html=1;endArrow=ERoneToMany;rounded=0;verticalAlign=top;" edge="1" parent="1">
          <mxGeometry width="100" height="100" relative="1" as="geometry">
            <mxPoint x="200" y="2" as="sourcePoint" />
            <mxPoint x="200" y="-8" as="targetPoint" />
            <Array as="points" />
          </mxGeometry>
        </mxCell>
        <mxCell id="JDaWL42p9K6xXjtLEoiw-21" value="" style="endArrow=none;dashed=1;html=1;rounded=0;entryX=0.001;entryY=0.388;entryDx=0;entryDy=0;exitX=1;exitY=0.5;exitDx=0;exitDy=0;entryPerimeter=0;" edge="1" parent="1">
          <mxGeometry width="50" height="50" relative="1" as="geometry">
            <mxPoint x="260" y="-38" as="sourcePoint" />
            <mxPoint x="530.1200000000001" y="-38.16800000000012" as="targetPoint" />
            <Array as="points" />
          </mxGeometry>
        </mxCell>
        <mxCell id="JDaWL42p9K6xXjtLEoiw-22" value="" style="fontSize=12;html=1;endArrow=ERoneToMany;rounded=0;verticalAlign=top;" edge="1" parent="1">
          <mxGeometry width="100" height="100" relative="1" as="geometry">
            <mxPoint x="270" y="-38" as="sourcePoint" />
            <mxPoint x="260" y="-38" as="targetPoint" />
            <Array as="points" />
          </mxGeometry>
        </mxCell>
        <mxCell id="JDaWL42p9K6xXjtLEoiw-137" value="&lt;p style=&quot;text-align:center&quot; align=&quot;center&quot; class=&quot;MsoNormal&quot;&gt;&lt;b&gt;&lt;font style=&quot;font-size: 10px;&quot;&gt;&lt;span style=&quot;line-height: 107%;&quot;&gt;БРОКЕР_ИНВЕСТОР&lt;/span&gt;&lt;/font&gt;&lt;/b&gt;&lt;/p&gt;" style="shape=table;startSize=30;container=1;collapsible=1;childLayout=tableLayout;fixedRows=1;rowLines=0;fontStyle=1;align=center;resizeLast=1;html=1;" vertex="1" parent="1">
          <mxGeometry x="530" y="651" width="150" height="80" as="geometry" />
        </mxCell>
        <mxCell id="JDaWL42p9K6xXjtLEoiw-138" value="" style="shape=tableRow;horizontal=0;startSize=0;swimlaneHead=0;swimlaneBody=0;fillColor=none;collapsible=0;dropTarget=0;points=[[0,0.5],[1,0.5]];portConstraint=eastwest;top=0;left=0;right=0;bottom=1;" vertex="1" parent="JDaWL42p9K6xXjtLEoiw-137">
          <mxGeometry y="30" width="150" height="50" as="geometry" />
        </mxCell>
        <mxCell id="JDaWL42p9K6xXjtLEoiw-139" value="" style="shape=partialRectangle;connectable=0;fillColor=none;top=0;left=0;bottom=0;right=0;fontStyle=1;overflow=hidden;whiteSpace=wrap;html=1;" vertex="1" parent="JDaWL42p9K6xXjtLEoiw-138">
          <mxGeometry width="30" height="50" as="geometry">
            <mxRectangle width="30" height="50" as="alternateBounds" />
          </mxGeometry>
        </mxCell>
        <mxCell id="JDaWL42p9K6xXjtLEoiw-140" value="&lt;div&gt;ИдентифИнвестора&amp;nbsp;&lt;/div&gt;&lt;div&gt;&lt;br&gt;&lt;/div&gt;&lt;div&gt;ИдентифБрокера&amp;nbsp;&lt;/div&gt;" style="shape=partialRectangle;connectable=0;fillColor=none;top=0;left=0;bottom=0;right=0;align=left;spacingLeft=6;fontStyle=5;overflow=hidden;whiteSpace=wrap;html=1;" vertex="1" parent="JDaWL42p9K6xXjtLEoiw-138">
          <mxGeometry x="30" width="120" height="50" as="geometry">
            <mxRectangle width="120" height="50" as="alternateBounds" />
          </mxGeometry>
        </mxCell>
        <mxCell id="JDaWL42p9K6xXjtLEoiw-141" value="&lt;p style=&quot;text-align:center&quot; align=&quot;center&quot; class=&quot;MsoNormal&quot;&gt;&lt;b&gt;&lt;font style=&quot;font-size: 12px;&quot;&gt;&lt;span style=&quot;line-height: 107%;&quot;&gt;СЧЁТ_АКТИВ&lt;/span&gt;&lt;/font&gt;&lt;/b&gt;&lt;/p&gt;" style="shape=table;startSize=30;container=1;collapsible=1;childLayout=tableLayout;fixedRows=1;rowLines=0;fontStyle=1;align=center;resizeLast=1;html=1;" vertex="1" parent="1">
          <mxGeometry x="110" y="-90" width="150" height="80" as="geometry" />
        </mxCell>
        <mxCell id="JDaWL42p9K6xXjtLEoiw-142" value="" style="shape=tableRow;horizontal=0;startSize=0;swimlaneHead=0;swimlaneBody=0;fillColor=none;collapsible=0;dropTarget=0;points=[[0,0.5],[1,0.5]];portConstraint=eastwest;top=0;left=0;right=0;bottom=1;" vertex="1" parent="JDaWL42p9K6xXjtLEoiw-141">
          <mxGeometry y="30" width="150" height="50" as="geometry" />
        </mxCell>
        <mxCell id="JDaWL42p9K6xXjtLEoiw-143" value="" style="shape=partialRectangle;connectable=0;fillColor=none;top=0;left=0;bottom=0;right=0;fontStyle=1;overflow=hidden;whiteSpace=wrap;html=1;" vertex="1" parent="JDaWL42p9K6xXjtLEoiw-142">
          <mxGeometry width="30" height="50" as="geometry">
            <mxRectangle width="30" height="50" as="alternateBounds" />
          </mxGeometry>
        </mxCell>
        <mxCell id="JDaWL42p9K6xXjtLEoiw-144" value="ИдентифСчета ИдентифАктива Количество&amp;nbsp;" style="shape=partialRectangle;connectable=0;fillColor=none;top=0;left=0;bottom=0;right=0;align=left;spacingLeft=6;fontStyle=5;overflow=hidden;whiteSpace=wrap;html=1;" vertex="1" parent="JDaWL42p9K6xXjtLEoiw-142">
          <mxGeometry x="30" width="120" height="50" as="geometry">
            <mxRectangle width="120" height="50" as="alternateBounds" />
          </mxGeometry>
        </mxCell>
        <mxCell id="JDaWL42p9K6xXjtLEoiw-145" value="" style="group" vertex="1" connectable="0" parent="1">
          <mxGeometry x="250" y="400" width="180" height="210" as="geometry" />
        </mxCell>
        <mxCell id="JDaWL42p9K6xXjtLEoiw-146" value="&lt;b&gt;&lt;span style=&quot;font-size:12.0pt;line-height:107%;&lt;br/&gt;font-family:&amp;quot;Times New Roman&amp;quot;,serif;mso-fareast-font-family:Calibri;mso-fareast-theme-font:&lt;br/&gt;minor-latin;mso-ansi-language:RU;mso-fareast-language:EN-US;mso-bidi-language:&lt;br/&gt;AR-SA&quot;&gt;СЧЁТ&lt;/span&gt;&lt;/b&gt;" style="shape=table;startSize=20;container=1;collapsible=1;childLayout=tableLayout;fixedRows=1;rowLines=0;fontStyle=1;align=center;resizeLast=1;html=1;" vertex="1" parent="JDaWL42p9K6xXjtLEoiw-145">
          <mxGeometry width="180" height="200" as="geometry" />
        </mxCell>
        <mxCell id="JDaWL42p9K6xXjtLEoiw-147" value="" style="shape=tableRow;horizontal=0;startSize=0;swimlaneHead=0;swimlaneBody=0;fillColor=none;collapsible=0;dropTarget=0;points=[[0,0.5],[1,0.5]];portConstraint=eastwest;top=0;left=0;right=0;bottom=1;" vertex="1" parent="JDaWL42p9K6xXjtLEoiw-146">
          <mxGeometry y="20" width="180" height="30" as="geometry" />
        </mxCell>
        <mxCell id="JDaWL42p9K6xXjtLEoiw-148" value="" style="shape=partialRectangle;connectable=0;fillColor=none;top=0;left=0;bottom=0;right=0;fontStyle=1;overflow=hidden;whiteSpace=wrap;html=1;" vertex="1" parent="JDaWL42p9K6xXjtLEoiw-147">
          <mxGeometry width="30" height="30" as="geometry">
            <mxRectangle width="30" height="30" as="alternateBounds" />
          </mxGeometry>
        </mxCell>
        <mxCell id="JDaWL42p9K6xXjtLEoiw-149" value="&lt;span style=&quot;font-size:12.0pt;line-height:107%;&lt;br/&gt;font-family:&amp;quot;Times New Roman&amp;quot;,serif;mso-fareast-font-family:Calibri;mso-fareast-theme-font:&lt;br/&gt;minor-latin;mso-ansi-language:RU;mso-fareast-language:EN-US;mso-bidi-language:&lt;br/&gt;AR-SA&quot;&gt;ID_Счёта&lt;/span&gt;" style="shape=partialRectangle;connectable=0;fillColor=none;top=0;left=0;bottom=0;right=0;align=left;spacingLeft=6;fontStyle=5;overflow=hidden;whiteSpace=wrap;html=1;" vertex="1" parent="JDaWL42p9K6xXjtLEoiw-147">
          <mxGeometry x="30" width="150" height="30" as="geometry">
            <mxRectangle width="150" height="30" as="alternateBounds" />
          </mxGeometry>
        </mxCell>
        <mxCell id="JDaWL42p9K6xXjtLEoiw-150" value="" style="shape=tableRow;horizontal=0;startSize=0;swimlaneHead=0;swimlaneBody=0;fillColor=none;collapsible=0;dropTarget=0;points=[[0,0.5],[1,0.5]];portConstraint=eastwest;top=0;left=0;right=0;bottom=0;" vertex="1" parent="JDaWL42p9K6xXjtLEoiw-146">
          <mxGeometry y="50" width="180" height="150" as="geometry" />
        </mxCell>
        <mxCell id="JDaWL42p9K6xXjtLEoiw-151" value="" style="shape=partialRectangle;connectable=0;fillColor=none;top=0;left=0;bottom=0;right=0;editable=1;overflow=hidden;whiteSpace=wrap;html=1;" vertex="1" parent="JDaWL42p9K6xXjtLEoiw-150">
          <mxGeometry width="30" height="150" as="geometry">
            <mxRectangle width="30" height="150" as="alternateBounds" />
          </mxGeometry>
        </mxCell>
        <mxCell id="JDaWL42p9K6xXjtLEoiw-152" value="&lt;div&gt;НомерСчета&lt;/div&gt;&lt;div&gt;&lt;br&gt;&lt;/div&gt;&lt;div&gt;ТипСчета&amp;nbsp;&lt;/div&gt;&lt;div&gt;&lt;br&gt;&lt;/div&gt;&lt;div&gt;ДатаОткрытия&lt;/div&gt;&lt;div&gt;&lt;br&gt;&lt;/div&gt;&lt;div&gt;Статус&amp;nbsp;&lt;/div&gt;&lt;div&gt;&lt;br&gt;&lt;/div&gt;&lt;div&gt;ИдентификаторИнвестора&amp;nbsp;&lt;/div&gt;&lt;div&gt;&lt;br&gt;&lt;/div&gt;&lt;div&gt;ИдентификаторБрокера&amp;nbsp;&lt;/div&gt;" style="shape=partialRectangle;connectable=0;fillColor=none;top=0;left=0;bottom=0;right=0;align=left;spacingLeft=6;overflow=hidden;whiteSpace=wrap;html=1;" vertex="1" parent="JDaWL42p9K6xXjtLEoiw-150">
          <mxGeometry x="30" width="150" height="150" as="geometry">
            <mxRectangle width="150" height="150" as="alternateBounds" />
          </mxGeometry>
        </mxCell>
        <mxCell id="JDaWL42p9K6xXjtLEoiw-153" value="&lt;b&gt;&lt;span style=&quot;font-size:12.0pt;line-height:107%;&lt;br/&gt;font-family:&amp;quot;Times New Roman&amp;quot;,serif;mso-fareast-font-family:Calibri;mso-fareast-theme-font:&lt;br/&gt;minor-latin;mso-ansi-language:RU;mso-fareast-language:EN-US;mso-bidi-language:&lt;br/&gt;AR-SA&quot;&gt;БРОКЕР&lt;/span&gt;&lt;/b&gt;" style="shape=table;startSize=30;container=1;collapsible=1;childLayout=tableLayout;fixedRows=1;rowLines=0;fontStyle=1;align=center;resizeLast=1;html=1;" vertex="1" parent="1">
          <mxGeometry x="530" y="360" width="150" height="150" as="geometry" />
        </mxCell>
        <mxCell id="JDaWL42p9K6xXjtLEoiw-154" value="" style="shape=tableRow;horizontal=0;startSize=0;swimlaneHead=0;swimlaneBody=0;fillColor=none;collapsible=0;dropTarget=0;points=[[0,0.5],[1,0.5]];portConstraint=eastwest;top=0;left=0;right=0;bottom=1;" vertex="1" parent="JDaWL42p9K6xXjtLEoiw-153">
          <mxGeometry y="30" width="150" height="30" as="geometry" />
        </mxCell>
        <mxCell id="JDaWL42p9K6xXjtLEoiw-155" value="" style="shape=partialRectangle;connectable=0;fillColor=none;top=0;left=0;bottom=0;right=0;fontStyle=1;overflow=hidden;whiteSpace=wrap;html=1;" vertex="1" parent="JDaWL42p9K6xXjtLEoiw-154">
          <mxGeometry width="30" height="30" as="geometry">
            <mxRectangle width="30" height="30" as="alternateBounds" />
          </mxGeometry>
        </mxCell>
        <mxCell id="JDaWL42p9K6xXjtLEoiw-156" value="&lt;span style=&quot;font-size:12.0pt;line-height:107%;&lt;br/&gt;font-family:&amp;quot;Times New Roman&amp;quot;,serif;mso-fareast-font-family:Calibri;mso-fareast-theme-font:&lt;br/&gt;minor-latin;mso-ansi-language:RU;mso-fareast-language:EN-US;mso-bidi-language:&lt;br/&gt;AR-SA&quot;&gt;ID_Брокера&lt;/span&gt;" style="shape=partialRectangle;connectable=0;fillColor=none;top=0;left=0;bottom=0;right=0;align=left;spacingLeft=6;fontStyle=5;overflow=hidden;whiteSpace=wrap;html=1;" vertex="1" parent="JDaWL42p9K6xXjtLEoiw-154">
          <mxGeometry x="30" width="120" height="30" as="geometry">
            <mxRectangle width="120" height="30" as="alternateBounds" />
          </mxGeometry>
        </mxCell>
        <mxCell id="JDaWL42p9K6xXjtLEoiw-157" value="" style="shape=tableRow;horizontal=0;startSize=0;swimlaneHead=0;swimlaneBody=0;fillColor=none;collapsible=0;dropTarget=0;points=[[0,0.5],[1,0.5]];portConstraint=eastwest;top=0;left=0;right=0;bottom=0;" vertex="1" parent="JDaWL42p9K6xXjtLEoiw-153">
          <mxGeometry y="60" width="150" height="90" as="geometry" />
        </mxCell>
        <mxCell id="JDaWL42p9K6xXjtLEoiw-158" value="" style="shape=partialRectangle;connectable=0;fillColor=none;top=0;left=0;bottom=0;right=0;editable=1;overflow=hidden;whiteSpace=wrap;html=1;" vertex="1" parent="JDaWL42p9K6xXjtLEoiw-157">
          <mxGeometry width="30" height="90" as="geometry">
            <mxRectangle width="30" height="90" as="alternateBounds" />
          </mxGeometry>
        </mxCell>
        <mxCell id="JDaWL42p9K6xXjtLEoiw-159" value="&lt;div&gt;Наименование&amp;nbsp;&lt;/div&gt;&lt;div&gt;&lt;br&gt;&lt;/div&gt;&lt;div&gt;Лицензия&lt;/div&gt;&lt;div&gt;&amp;nbsp;&lt;/div&gt;&lt;div&gt;КонтактныеДанные&amp;nbsp;&lt;/div&gt;" style="shape=partialRectangle;connectable=0;fillColor=none;top=0;left=0;bottom=0;right=0;align=left;spacingLeft=6;overflow=hidden;whiteSpace=wrap;html=1;" vertex="1" parent="JDaWL42p9K6xXjtLEoiw-157">
          <mxGeometry x="30" width="120" height="90" as="geometry">
            <mxRectangle width="120" height="90" as="alternateBounds" />
          </mxGeometry>
        </mxCell>
        <mxCell id="JDaWL42p9K6xXjtLEoiw-160" value="" style="group" vertex="1" connectable="0" parent="1">
          <mxGeometry x="530" y="-60" width="180" height="210" as="geometry" />
        </mxCell>
        <mxCell id="JDaWL42p9K6xXjtLEoiw-161" value="&lt;b&gt;&lt;span style=&quot;font-size:12.0pt;line-height:107%;&lt;br/&gt;font-family:&amp;quot;Times New Roman&amp;quot;,serif;mso-fareast-font-family:Calibri;mso-fareast-theme-font:&lt;br/&gt;minor-latin;mso-ansi-language:RU;mso-fareast-language:EN-US;mso-bidi-language:&lt;br/&gt;AR-SA&quot;&gt;АКТИВ&lt;/span&gt;&lt;/b&gt;" style="shape=table;startSize=30;container=1;collapsible=1;childLayout=tableLayout;fixedRows=1;rowLines=0;fontStyle=1;align=center;resizeLast=1;html=1;" vertex="1" parent="JDaWL42p9K6xXjtLEoiw-160">
          <mxGeometry width="180" height="210" as="geometry" />
        </mxCell>
        <mxCell id="JDaWL42p9K6xXjtLEoiw-162" value="" style="shape=tableRow;horizontal=0;startSize=0;swimlaneHead=0;swimlaneBody=0;fillColor=none;collapsible=0;dropTarget=0;points=[[0,0.5],[1,0.5]];portConstraint=eastwest;top=0;left=0;right=0;bottom=1;" vertex="1" parent="JDaWL42p9K6xXjtLEoiw-161">
          <mxGeometry y="30" width="180" height="30" as="geometry" />
        </mxCell>
        <mxCell id="JDaWL42p9K6xXjtLEoiw-163" value="PK" style="shape=partialRectangle;connectable=0;fillColor=none;top=0;left=0;bottom=0;right=0;fontStyle=1;overflow=hidden;whiteSpace=wrap;html=1;" vertex="1" parent="JDaWL42p9K6xXjtLEoiw-162">
          <mxGeometry width="30" height="30" as="geometry">
            <mxRectangle width="30" height="30" as="alternateBounds" />
          </mxGeometry>
        </mxCell>
        <mxCell id="JDaWL42p9K6xXjtLEoiw-164" value="&lt;span style=&quot;font-size:12.0pt;line-height:107%;&lt;br/&gt;font-family:&amp;quot;Times New Roman&amp;quot;,serif;mso-fareast-font-family:Calibri;mso-fareast-theme-font:&lt;br/&gt;minor-latin;mso-ansi-language:RU;mso-fareast-language:EN-US;mso-bidi-language:&lt;br/&gt;AR-SA&quot;&gt;ID_Актива&lt;/span&gt;" style="shape=partialRectangle;connectable=0;fillColor=none;top=0;left=0;bottom=0;right=0;align=left;spacingLeft=6;fontStyle=5;overflow=hidden;whiteSpace=wrap;html=1;" vertex="1" parent="JDaWL42p9K6xXjtLEoiw-162">
          <mxGeometry x="30" width="150" height="30" as="geometry">
            <mxRectangle width="150" height="30" as="alternateBounds" />
          </mxGeometry>
        </mxCell>
        <mxCell id="JDaWL42p9K6xXjtLEoiw-165" value="" style="shape=tableRow;horizontal=0;startSize=0;swimlaneHead=0;swimlaneBody=0;fillColor=none;collapsible=0;dropTarget=0;points=[[0,0.5],[1,0.5]];portConstraint=eastwest;top=0;left=0;right=0;bottom=0;" vertex="1" parent="JDaWL42p9K6xXjtLEoiw-161">
          <mxGeometry y="60" width="180" height="150" as="geometry" />
        </mxCell>
        <mxCell id="JDaWL42p9K6xXjtLEoiw-166" value="" style="shape=partialRectangle;connectable=0;fillColor=none;top=0;left=0;bottom=0;right=0;editable=1;overflow=hidden;whiteSpace=wrap;html=1;" vertex="1" parent="JDaWL42p9K6xXjtLEoiw-165">
          <mxGeometry width="30" height="150" as="geometry">
            <mxRectangle width="30" height="150" as="alternateBounds" />
          </mxGeometry>
        </mxCell>
        <mxCell id="JDaWL42p9K6xXjtLEoiw-167" value="&lt;div&gt;ЦенаЗаЕдиницу&lt;/div&gt;&lt;div&gt;&amp;nbsp;&lt;/div&gt;&lt;div&gt;Тикер&amp;nbsp;&lt;/div&gt;&lt;div&gt;&lt;br&gt;&lt;/div&gt;&lt;div&gt;Наименование&lt;/div&gt;&lt;div&gt;&lt;br&gt;&lt;/div&gt;&lt;div&gt;ТипАктива&amp;nbsp;&lt;/div&gt;&lt;div&gt;&lt;br&gt;&lt;/div&gt;&lt;div&gt;ВалютаНоминала&amp;nbsp;&lt;/div&gt;" style="shape=partialRectangle;connectable=0;fillColor=none;top=0;left=0;bottom=0;right=0;align=left;spacingLeft=6;overflow=hidden;whiteSpace=wrap;html=1;" vertex="1" parent="JDaWL42p9K6xXjtLEoiw-165">
          <mxGeometry x="30" width="150" height="150" as="geometry">
            <mxRectangle width="150" height="150" as="alternateBounds" />
          </mxGeometry>
        </mxCell>
        <mxCell id="JDaWL42p9K6xXjtLEoiw-168" value="&lt;b&gt;&lt;span style=&quot;font-size:12.0pt;line-height:107%;&lt;br/&gt;font-family:&amp;quot;Times New Roman&amp;quot;,serif;mso-fareast-font-family:Calibri;mso-fareast-theme-font:&lt;br/&gt;minor-latin;mso-ansi-language:RU;mso-fareast-language:EN-US;mso-bidi-language:&lt;br/&gt;AR-SA&quot;&gt;ТРАНЗАКЦИЯ&lt;/span&gt;&lt;/b&gt;" style="shape=table;startSize=30;container=1;collapsible=1;childLayout=tableLayout;fixedRows=1;rowLines=0;fontStyle=1;align=center;resizeLast=1;html=1;" vertex="1" parent="1">
          <mxGeometry x="250" y="20" width="180" height="300" as="geometry" />
        </mxCell>
        <mxCell id="JDaWL42p9K6xXjtLEoiw-169" value="" style="shape=tableRow;horizontal=0;startSize=0;swimlaneHead=0;swimlaneBody=0;fillColor=none;collapsible=0;dropTarget=0;points=[[0,0.5],[1,0.5]];portConstraint=eastwest;top=0;left=0;right=0;bottom=1;" vertex="1" parent="JDaWL42p9K6xXjtLEoiw-168">
          <mxGeometry y="30" width="180" height="30" as="geometry" />
        </mxCell>
        <mxCell id="JDaWL42p9K6xXjtLEoiw-170" value="" style="shape=partialRectangle;connectable=0;fillColor=none;top=0;left=0;bottom=0;right=0;fontStyle=1;overflow=hidden;whiteSpace=wrap;html=1;" vertex="1" parent="JDaWL42p9K6xXjtLEoiw-169">
          <mxGeometry width="30" height="30" as="geometry">
            <mxRectangle width="30" height="30" as="alternateBounds" />
          </mxGeometry>
        </mxCell>
        <mxCell id="JDaWL42p9K6xXjtLEoiw-171" value="&lt;span style=&quot;font-size:12.0pt;line-height:107%;&lt;br/&gt;font-family:&amp;quot;Times New Roman&amp;quot;,serif;mso-fareast-font-family:Calibri;mso-fareast-theme-font:&lt;br/&gt;minor-latin;mso-ansi-language:RU;mso-fareast-language:EN-US;mso-bidi-language:&lt;br/&gt;AR-SA&quot;&gt;ID_Транзакции&lt;/span&gt;" style="shape=partialRectangle;connectable=0;fillColor=none;top=0;left=0;bottom=0;right=0;align=left;spacingLeft=6;fontStyle=5;overflow=hidden;whiteSpace=wrap;html=1;" vertex="1" parent="JDaWL42p9K6xXjtLEoiw-169">
          <mxGeometry x="30" width="150" height="30" as="geometry">
            <mxRectangle width="150" height="30" as="alternateBounds" />
          </mxGeometry>
        </mxCell>
        <mxCell id="JDaWL42p9K6xXjtLEoiw-172" value="" style="shape=tableRow;horizontal=0;startSize=0;swimlaneHead=0;swimlaneBody=0;fillColor=none;collapsible=0;dropTarget=0;points=[[0,0.5],[1,0.5]];portConstraint=eastwest;top=0;left=0;right=0;bottom=0;" vertex="1" parent="JDaWL42p9K6xXjtLEoiw-168">
          <mxGeometry y="60" width="180" height="240" as="geometry" />
        </mxCell>
        <mxCell id="JDaWL42p9K6xXjtLEoiw-173" value="" style="shape=partialRectangle;connectable=0;fillColor=none;top=0;left=0;bottom=0;right=0;editable=1;overflow=hidden;whiteSpace=wrap;html=1;" vertex="1" parent="JDaWL42p9K6xXjtLEoiw-172">
          <mxGeometry width="30" height="240" as="geometry">
            <mxRectangle width="30" height="240" as="alternateBounds" />
          </mxGeometry>
        </mxCell>
        <mxCell id="JDaWL42p9K6xXjtLEoiw-174" value="&lt;div&gt;ДатаВремя&amp;nbsp;&lt;/div&gt;&lt;div&gt;&lt;br&gt;&lt;/div&gt;&lt;div&gt;ТипОперации&amp;nbsp;&lt;/div&gt;&lt;div&gt;&lt;br&gt;&lt;/div&gt;&lt;div&gt;Количество&amp;nbsp;&lt;/div&gt;&lt;div&gt;&lt;br&gt;&lt;/div&gt;&lt;div&gt;СуммаТранзакции&amp;nbsp;&lt;/div&gt;&lt;div&gt;&lt;br&gt;&lt;/div&gt;&lt;div&gt;Валюта&amp;nbsp;&lt;/div&gt;&lt;div&gt;&lt;br&gt;&lt;/div&gt;&lt;div&gt;ИдентификаторСчета&amp;nbsp;&lt;/div&gt;&lt;div&gt;&lt;br&gt;&lt;/div&gt;&lt;div&gt;ИдентификаторАктива&amp;nbsp;&lt;/div&gt;&lt;div&gt;&lt;br&gt;&lt;/div&gt;&lt;div&gt;Описание&amp;nbsp;&lt;/div&gt;" style="shape=partialRectangle;connectable=0;fillColor=none;top=0;left=0;bottom=0;right=0;align=left;spacingLeft=6;overflow=hidden;whiteSpace=wrap;html=1;" vertex="1" parent="JDaWL42p9K6xXjtLEoiw-172">
          <mxGeometry x="30" width="150" height="240" as="geometry">
            <mxRectangle width="150" height="240" as="alternateBounds" />
          </mxGeometry>
        </mxCell>
        <mxCell id="JDaWL42p9K6xXjtLEoiw-191" value="" style="group" vertex="1" connectable="0" parent="1">
          <mxGeometry x="260" y="651" width="180" height="215" as="geometry" />
        </mxCell>
        <mxCell id="JDaWL42p9K6xXjtLEoiw-192" value="" style="group" vertex="1" connectable="0" parent="JDaWL42p9K6xXjtLEoiw-191">
          <mxGeometry width="180" height="210" as="geometry" />
        </mxCell>
        <mxCell id="JDaWL42p9K6xXjtLEoiw-193" value="ИНВЕСТОР" style="shape=table;startSize=30;container=1;collapsible=1;childLayout=tableLayout;fixedRows=1;rowLines=0;fontStyle=1;align=center;resizeLast=1;html=1;" vertex="1" parent="JDaWL42p9K6xXjtLEoiw-192">
          <mxGeometry x="-9" width="180" height="210" as="geometry" />
        </mxCell>
        <mxCell id="JDaWL42p9K6xXjtLEoiw-194" value="" style="shape=tableRow;horizontal=0;startSize=0;swimlaneHead=0;swimlaneBody=0;fillColor=none;collapsible=0;dropTarget=0;points=[[0,0.5],[1,0.5]];portConstraint=eastwest;top=0;left=0;right=0;bottom=1;" vertex="1" parent="JDaWL42p9K6xXjtLEoiw-193">
          <mxGeometry y="30" width="180" height="30" as="geometry" />
        </mxCell>
        <mxCell id="JDaWL42p9K6xXjtLEoiw-195" value="" style="shape=partialRectangle;connectable=0;fillColor=none;top=0;left=0;bottom=0;right=0;fontStyle=1;overflow=hidden;whiteSpace=wrap;html=1;" vertex="1" parent="JDaWL42p9K6xXjtLEoiw-194">
          <mxGeometry width="30" height="30" as="geometry">
            <mxRectangle width="30" height="30" as="alternateBounds" />
          </mxGeometry>
        </mxCell>
        <mxCell id="JDaWL42p9K6xXjtLEoiw-196" value="&lt;font style=&quot;font-size: 11px;&quot;&gt;&lt;span style=&quot;line-height: 107%;&quot;&gt;ID_Инвестора&lt;/span&gt;&lt;/font&gt;" style="shape=partialRectangle;connectable=0;fillColor=none;top=0;left=0;bottom=0;right=0;align=left;spacingLeft=6;fontStyle=5;overflow=hidden;whiteSpace=wrap;html=1;" vertex="1" parent="JDaWL42p9K6xXjtLEoiw-194">
          <mxGeometry x="30" width="150" height="30" as="geometry">
            <mxRectangle width="150" height="30" as="alternateBounds" />
          </mxGeometry>
        </mxCell>
        <mxCell id="JDaWL42p9K6xXjtLEoiw-197" value="" style="shape=tableRow;horizontal=0;startSize=0;swimlaneHead=0;swimlaneBody=0;fillColor=none;collapsible=0;dropTarget=0;points=[[0,0.5],[1,0.5]];portConstraint=eastwest;top=0;left=0;right=0;bottom=0;" vertex="1" parent="JDaWL42p9K6xXjtLEoiw-193">
          <mxGeometry y="60" width="180" height="30" as="geometry" />
        </mxCell>
        <mxCell id="JDaWL42p9K6xXjtLEoiw-198" value="" style="shape=partialRectangle;connectable=0;fillColor=none;top=0;left=0;bottom=0;right=0;editable=1;overflow=hidden;whiteSpace=wrap;html=1;" vertex="1" parent="JDaWL42p9K6xXjtLEoiw-197">
          <mxGeometry width="30" height="30" as="geometry">
            <mxRectangle width="30" height="30" as="alternateBounds" />
          </mxGeometry>
        </mxCell>
        <mxCell id="JDaWL42p9K6xXjtLEoiw-199" value="" style="shape=partialRectangle;connectable=0;fillColor=none;top=0;left=0;bottom=0;right=0;align=left;spacingLeft=6;overflow=hidden;whiteSpace=wrap;html=1;" vertex="1" parent="JDaWL42p9K6xXjtLEoiw-197">
          <mxGeometry x="30" width="150" height="30" as="geometry">
            <mxRectangle width="150" height="30" as="alternateBounds" />
          </mxGeometry>
        </mxCell>
        <mxCell id="JDaWL42p9K6xXjtLEoiw-200" value="" style="shape=tableRow;horizontal=0;startSize=0;swimlaneHead=0;swimlaneBody=0;fillColor=none;collapsible=0;dropTarget=0;points=[[0,0.5],[1,0.5]];portConstraint=eastwest;top=0;left=0;right=0;bottom=0;" vertex="1" parent="JDaWL42p9K6xXjtLEoiw-193">
          <mxGeometry y="90" width="180" height="30" as="geometry" />
        </mxCell>
        <mxCell id="JDaWL42p9K6xXjtLEoiw-201" value="" style="shape=partialRectangle;connectable=0;fillColor=none;top=0;left=0;bottom=0;right=0;editable=1;overflow=hidden;whiteSpace=wrap;html=1;" vertex="1" parent="JDaWL42p9K6xXjtLEoiw-200">
          <mxGeometry width="30" height="30" as="geometry">
            <mxRectangle width="30" height="30" as="alternateBounds" />
          </mxGeometry>
        </mxCell>
        <mxCell id="JDaWL42p9K6xXjtLEoiw-202" value="" style="shape=partialRectangle;connectable=0;fillColor=none;top=0;left=0;bottom=0;right=0;align=left;spacingLeft=6;overflow=hidden;whiteSpace=wrap;html=1;" vertex="1" parent="JDaWL42p9K6xXjtLEoiw-200">
          <mxGeometry x="30" width="150" height="30" as="geometry">
            <mxRectangle width="150" height="30" as="alternateBounds" />
          </mxGeometry>
        </mxCell>
        <mxCell id="JDaWL42p9K6xXjtLEoiw-203" value="" style="shape=tableRow;horizontal=0;startSize=0;swimlaneHead=0;swimlaneBody=0;fillColor=none;collapsible=0;dropTarget=0;points=[[0,0.5],[1,0.5]];portConstraint=eastwest;top=0;left=0;right=0;bottom=0;" vertex="1" parent="JDaWL42p9K6xXjtLEoiw-193">
          <mxGeometry y="120" width="180" height="90" as="geometry" />
        </mxCell>
        <mxCell id="JDaWL42p9K6xXjtLEoiw-204" value="" style="shape=partialRectangle;connectable=0;fillColor=none;top=0;left=0;bottom=0;right=0;editable=1;overflow=hidden;whiteSpace=wrap;html=1;" vertex="1" parent="JDaWL42p9K6xXjtLEoiw-203">
          <mxGeometry width="30" height="90" as="geometry">
            <mxRectangle width="30" height="90" as="alternateBounds" />
          </mxGeometry>
        </mxCell>
        <mxCell id="JDaWL42p9K6xXjtLEoiw-205" value="" style="shape=partialRectangle;connectable=0;fillColor=none;top=0;left=0;bottom=0;right=0;align=left;spacingLeft=6;overflow=hidden;whiteSpace=wrap;html=1;" vertex="1" parent="JDaWL42p9K6xXjtLEoiw-203">
          <mxGeometry x="30" width="150" height="90" as="geometry">
            <mxRectangle width="150" height="90" as="alternateBounds" />
          </mxGeometry>
        </mxCell>
        <mxCell id="JDaWL42p9K6xXjtLEoiw-206" value="&lt;div&gt;Идентификатор&amp;nbsp;&lt;/div&gt;&lt;div&gt;&lt;br&gt;&lt;/div&gt;&lt;div&gt;ФИО&amp;nbsp;&lt;/div&gt;&lt;div&gt;&lt;br&gt;&lt;/div&gt;&lt;div&gt;ДатаРождения&lt;/div&gt;&lt;div&gt;&lt;br&gt;&lt;/div&gt;&lt;div&gt;КонтактныйТелефон&amp;nbsp;&lt;/div&gt;&lt;div&gt;&lt;br&gt;&lt;/div&gt;&lt;div&gt;ЭлектроннаяПочта&amp;nbsp;&lt;/div&gt;&lt;div&gt;&lt;br&gt;&lt;/div&gt;" style="shape=partialRectangle;connectable=1;fillColor=none;top=0;left=0;bottom=0;right=0;align=left;spacingLeft=6;overflow=hidden;whiteSpace=wrap;html=1;movable=1;resizable=1;rotatable=1;deletable=1;editable=1;locked=0;" vertex="1" parent="JDaWL42p9K6xXjtLEoiw-191">
          <mxGeometry x="20" y="60" width="150" height="155" as="geometry">
            <mxRectangle width="150" height="30" as="alternateBounds" />
          </mxGeometry>
        </mxCell>
      </root>
    </mxGraphModel>
  </diagram>
</mxfile>
